<?xml version="1.0" encoding="utf-8"?>
<!-- Generator: Adobe Illustrator 21.0.2, SVG Export Plug-In . SVG Version: 6.00 Build 0)  -->
<svg version="1.1" xmlns="http://www.w3.org/2000/svg" xmlns:xlink="http://www.w3.org/1999/xlink" x="0px" y="0px"
	 viewBox="0 0 300 300" style="enable-background:new 0 0 300 300;" xml:space="preserve">
<style type="text/css">
	.st0{display:none;}
	.st1{display:inline;fill:#070772;}
	.st2{display:inline;fill:url(#SVGID_1_);}
	.st3{display:inline;fill:#D60070;}
	.st4{display:inline;fill:url(#SVGID_2_);}
	.st5{display:inline;fill:url(#SVGID_3_);}
	.st6{display:inline;fill:url(#SVGID_4_);}
	.st7{display:inline;fill:url(#SVGID_5_);}
	.st8{display:inline;fill:none;stroke:url(#SVGID_6_);stroke-width:15;stroke-miterlimit:10;}
	.st9{display:inline;fill:url(#SVGID_7_);}
	.st10{display:inline;fill:url(#SVGID_8_);}
	.st11{display:inline;fill:url(#SVGID_9_);}
	.st12{display:inline;fill:url(#SVGID_10_);}
	.st13{display:inline;fill:url(#SVGID_11_);}
	.st14{display:inline;fill:url(#SVGID_12_);}
	.st15{display:inline;fill:url(#SVGID_13_);}
	.st16{display:inline;fill:url(#SVGID_14_);}
	.st17{display:inline;fill:url(#SVGID_15_);}
	.st18{display:inline;fill:url(#SVGID_16_);}
	.st19{display:inline;fill:url(#SVGID_17_);}
	.st20{display:inline;fill:url(#SVGID_18_);}
	.st21{display:inline;fill:url(#SVGID_19_);}
	.st22{display:inline;fill:url(#SVGID_20_);}
	.st23{display:inline;fill:url(#SVGID_21_);}
	.st24{display:inline;fill:url(#SVGID_22_);}
	.st25{display:inline;fill:url(#SVGID_23_);}
	.st26{display:inline;fill:url(#SVGID_24_);}
	.st27{display:inline;fill:url(#SVGID_25_);}
	.st28{display:inline;fill:url(#SVGID_26_);}
	.st29{display:inline;fill:#404041;}
	.st30{display:inline;fill:url(#SVGID_27_);}
	.st31{display:inline;fill:url(#SVGID_28_);}
	.st32{display:inline;fill:url(#SVGID_29_);}
	.st33{display:inline;fill:url(#SVGID_30_);}
	.st34{display:inline;fill:url(#SVGID_31_);}
	.st35{display:inline;fill:url(#SVGID_32_);}
	.st36{display:inline;fill:url(#SVGID_33_);}
	.st37{display:inline;fill:url(#SVGID_34_);}
	.st38{display:inline;opacity:0.79;fill:url(#SVGID_35_);}
	.st39{display:inline;opacity:0.43;fill:url(#SVGID_36_);}
	.st40{display:inline;fill:url(#SVGID_37_);}
	.st41{display:inline;fill:url(#SVGID_38_);stroke:#FFFFFF;stroke-width:8;stroke-miterlimit:10;}
	.st42{fill:url(#SVGID_39_);}
	.st43{fill:#FFFFFF;stroke:#FFFFFF;stroke-width:0.25;stroke-miterlimit:10;}
	.st44{fill:url(#SVGID_40_);stroke:#FFFFFF;stroke-width:0.25;stroke-miterlimit:10;}
</style>
<g id="Layer_1" class="st0">
	<g id="Layer_1_1_">
		
			<image style="display:inline;overflow:visible;enable-background:new    ;" width="216" height="144" xlink:href="E48DCDE1.jpeg"  transform="matrix(0.2315 0 0 0.6735 118 102)">
		</image>
		
			<image style="display:inline;overflow:visible;enable-background:new    ;" width="95" height="122" xlink:href="E48DCDE3.jpeg"  transform="matrix(0.9999 0 0 0.9999 92 74)">
		</image>
		
			<image style="display:inline;overflow:visible;enable-background:new    ;" width="216" height="144" xlink:href="E48DCDE1.jpeg"  transform="matrix(0.4027 0 0 0.5694 96 109)">
		</image>
		
			<image style="display:inline;overflow:visible;enable-background:new    ;" width="216" height="144" xlink:href="E48DCDE7.jpeg"  transform="matrix(0.4861 0 0 0.6458 77 104)">
		</image>
		
			<image style="display:inline;overflow:visible;enable-background:new    ;" width="216" height="144" xlink:href="E48DCDE1.jpeg"  transform="matrix(0.3564 0 0 0.6388 105 108)">
		</image>
		
			<image style="display:inline;overflow:visible;enable-background:new    ;" width="216" height="144" xlink:href="E48DCDE3.jpeg"  transform="matrix(0.3981 0 0 0.4999 96 118)">
		</image>
	</g>
	<g id="Layer_8">
		<rect class="st1" width="300" height="300"/>
	</g>
	<g id="Volume">
		
			<linearGradient id="SVGID_1_" gradientUnits="userSpaceOnUse" x1="31.1" y1="149.5029" x2="269.9" y2="149.5029" gradientTransform="matrix(1 0 0 -1 0 300)">
			<stop  offset="0" style="stop-color:#D41672"/>
			<stop  offset="0.6386" style="stop-color:#ED1E79"/>
			<stop  offset="0.7525" style="stop-color:#E41874"/>
			<stop  offset="0.9413" style="stop-color:#CA0668"/>
			<stop  offset="1" style="stop-color:#C10063"/>
		</linearGradient>
		<path class="st2" d="M150.6,224.9c0,4.2-2.4,8-6.2,9.8c-1.5,0.7-3,1-4.6,1c-2.5,0-4.9-0.9-6.9-2.5l-59.3-49.1H41.9
			c-6,0-10.8-4.9-10.8-10.8v-43.2c0-6,4.9-10.8,10.8-10.8h31.6l59.3-49.1c3.2-2.7,7.7-3.3,11.5-1.5s6.2,5.6,6.2,9.8L150.6,224.9
			L150.6,224.9z M192.2,208c-0.3,0-0.5,0-0.8,0c-2.9,0-5.6-1.1-7.7-3.2l-1.5-1.5c-3.8-3.8-4.2-9.8-1-14.1
			c8.1-10.9,12.4-23.9,12.4-37.5c0-14.6-4.9-28.4-14.1-39.7c-3.5-4.3-3.2-10.6,0.7-14.5l1.4-1.5c2.2-2.2,5.1-3.3,8.2-3.2
			c3.1,0.2,5.9,1.6,7.9,4c12.8,15.6,19.5,34.6,19.5,54.9c0,18.9-6,36.8-17.3,51.9C198.3,206.2,195.4,207.8,192.2,208z M237.1,241.5
			c-2,2.3-4.8,3.7-7.8,3.8c-0.1,0-0.3,0-0.5,0c-2.9,0-5.6-1.1-7.7-3.2l-1.4-1.4c-4-4-4.3-10.3-0.6-14.6
			c17.5-20.8,27.1-47.2,27.1-74.4c0-28.3-10.3-55.5-29-76.6c-3.8-4.3-3.6-10.8,0.4-14.8l1.4-1.4c2.1-2.1,4.8-3.3,8-3.2
			c3,0.1,5.8,1.4,7.8,3.6c22.6,25.5,35.1,58.3,35.1,92.4C269.9,184.5,258.2,216.4,237.1,241.5z"/>
	</g>
	<g id="Stopwatch">
		<path class="st3" d="M225,109.2l-13.3-13.3c-0.9-0.9-0.9-2.2,0-3.1L225,79.6c0.9-0.9,2.2-0.9,3.1,0l13.3,13.3
			c0.9,0.9,0.9,2.2,0,3.1l-13.3,13.3C227.2,110.1,225.8,110.1,225,109.2z"/>
		
			<linearGradient id="SVGID_2_" gradientUnits="userSpaceOnUse" x1="132.4438" y1="244.8" x2="171.5438" y2="244.8" gradientTransform="matrix(1 0 0 -1 0 300)">
			<stop  offset="0" style="stop-color:#D41672"/>
			<stop  offset="0.6386" style="stop-color:#ED1E79"/>
			<stop  offset="0.7525" style="stop-color:#E41874"/>
			<stop  offset="0.9413" style="stop-color:#CA0668"/>
			<stop  offset="1" style="stop-color:#C10063"/>
		</linearGradient>
		<rect x="132.4" y="40.7" class="st4" width="39.1" height="29"/>
		
			<linearGradient id="SVGID_3_" gradientUnits="userSpaceOnUse" x1="155.4256" y1="103.2" x2="216.2468" y2="103.2" gradientTransform="matrix(1 0 0 -1 0 300)">
			<stop  offset="0" style="stop-color:#D41672"/>
			<stop  offset="0.6386" style="stop-color:#ED1E79"/>
			<stop  offset="0.7525" style="stop-color:#E41874"/>
			<stop  offset="0.9413" style="stop-color:#CA0668"/>
			<stop  offset="1" style="stop-color:#C10063"/>
		</linearGradient>
		<path class="st5" d="M216,212l-8.2,10.5c-0.3,0.4-1,0.5-1.4,0.2L155.8,183c-0.4-0.3-0.5-1-0.2-1.4l8.2-10.5c0.3-0.4,1-0.5,1.4-0.2
			l50.6,39.6C216.3,210.9,216.4,211.5,216,212z"/>
		
			<linearGradient id="SVGID_4_" gradientUnits="userSpaceOnUse" x1="129.3898" y1="135.9" x2="155.841" y2="135.9" gradientTransform="matrix(1 0 0 -1 0 300)">
			<stop  offset="0" style="stop-color:#D41672"/>
			<stop  offset="0.6386" style="stop-color:#ED1E79"/>
			<stop  offset="0.7525" style="stop-color:#E41874"/>
			<stop  offset="0.9413" style="stop-color:#CA0668"/>
			<stop  offset="1" style="stop-color:#C10063"/>
		</linearGradient>
		<path class="st6" d="M155.6,165.8l-8.2,10.5c-0.3,0.4-1,0.5-1.4,0.2l-16.2-12.7c-0.4-0.3-0.5-1-0.2-1.4l8.2-10.5
			c0.3-0.4,1-0.5,1.4-0.2l16.2,12.7C155.9,164.8,156,165.4,155.6,165.8z"/>
		
			<linearGradient id="SVGID_5_" gradientUnits="userSpaceOnUse" x1="113" y1="259.25" x2="187.9" y2="259.25" gradientTransform="matrix(1 0 0 -1 0 300)">
			<stop  offset="0" style="stop-color:#D41672"/>
			<stop  offset="0.6386" style="stop-color:#ED1E79"/>
			<stop  offset="0.7525" style="stop-color:#E41874"/>
			<stop  offset="0.9413" style="stop-color:#CA0668"/>
			<stop  offset="1" style="stop-color:#C10063"/>
		</linearGradient>
		<path class="st7" d="M113,56.2V25.3c0-1.2,1-2.2,2.2-2.2h70.5c1.2,0,2.2,1,2.2,2.2v30.9c0,1.2-1,2.2-2.2,2.2h-70.5
			C114,58.4,113,57.4,113,56.2z"/>
		
			<linearGradient id="SVGID_6_" gradientUnits="userSpaceOnUse" x1="42" y1="127.5" x2="259" y2="127.5" gradientTransform="matrix(1 0 0 -1 0 300)">
			<stop  offset="0" style="stop-color:#D41672"/>
			<stop  offset="0.6386" style="stop-color:#ED1E79"/>
			<stop  offset="0.7525" style="stop-color:#E41874"/>
			<stop  offset="0.9413" style="stop-color:#CA0668"/>
			<stop  offset="1" style="stop-color:#C10063"/>
		</linearGradient>
		<circle class="st8" cx="150.5" cy="172.5" r="101"/>
		
			<linearGradient id="SVGID_7_" gradientUnits="userSpaceOnUse" x1="132.4438" y1="129.4" x2="171.5656" y2="129.4" gradientTransform="matrix(1 0 0 -1 0 300)">
			<stop  offset="0" style="stop-color:#D41672"/>
			<stop  offset="0.6386" style="stop-color:#ED1E79"/>
			<stop  offset="0.7525" style="stop-color:#E41874"/>
			<stop  offset="0.9413" style="stop-color:#CA0668"/>
			<stop  offset="1" style="stop-color:#C10063"/>
		</linearGradient>
		<circle class="st9" cx="152" cy="170.6" r="19.6"/>
	</g>
	<g id="Bath">
		
			<linearGradient id="SVGID_8_" gradientUnits="userSpaceOnUse" x1="18.6038" y1="119.5" x2="20.6443" y2="119.5" gradientTransform="matrix(1 0 0 -1 0 300)">
			<stop  offset="0" style="stop-color:#D41672"/>
			<stop  offset="0.6386" style="stop-color:#ED1E79"/>
			<stop  offset="0.7525" style="stop-color:#E41874"/>
			<stop  offset="0.9413" style="stop-color:#CA0668"/>
			<stop  offset="1" style="stop-color:#C10063"/>
		</linearGradient>
		<path class="st10" d="M18.6,180.4c0.7,0.1,1.4,0.2,2,0.2h-0.9L18.6,180.4z"/>
		
			<linearGradient id="SVGID_9_" gradientUnits="userSpaceOnUse" x1="18.6038" y1="140" x2="20.6443" y2="140" gradientTransform="matrix(1 0 0 -1 0 300)">
			<stop  offset="0" style="stop-color:#D41672"/>
			<stop  offset="0.6386" style="stop-color:#ED1E79"/>
			<stop  offset="0.7525" style="stop-color:#E41874"/>
			<stop  offset="0.9413" style="stop-color:#CA0668"/>
			<stop  offset="1" style="stop-color:#C10063"/>
		</linearGradient>
		<path class="st11" d="M20.6,159.9c-0.7,0-1.4,0.1-2,0.2c0.4-0.1,0.8-0.2,1.2-0.2H20.6z"/>
		
			<linearGradient id="SVGID_10_" gradientUnits="userSpaceOnUse" x1="279.3557" y1="140" x2="281.3962" y2="140" gradientTransform="matrix(1 0 0 -1 0 300)">
			<stop  offset="0" style="stop-color:#D41672"/>
			<stop  offset="0.6386" style="stop-color:#ED1E79"/>
			<stop  offset="0.7525" style="stop-color:#E41874"/>
			<stop  offset="0.9413" style="stop-color:#CA0668"/>
			<stop  offset="1" style="stop-color:#C10063"/>
		</linearGradient>
		<path class="st12" d="M281.4,160.1c-0.7-0.1-1.4-0.2-2-0.2h0.9C280.6,159.9,281,160,281.4,160.1z"/>
		
			<linearGradient id="SVGID_11_" gradientUnits="userSpaceOnUse" x1="279.3557" y1="119.5" x2="281.3962" y2="119.5" gradientTransform="matrix(1 0 0 -1 0 300)">
			<stop  offset="0" style="stop-color:#D41672"/>
			<stop  offset="0.6386" style="stop-color:#ED1E79"/>
			<stop  offset="0.7525" style="stop-color:#E41874"/>
			<stop  offset="0.9413" style="stop-color:#CA0668"/>
			<stop  offset="1" style="stop-color:#C10063"/>
		</linearGradient>
		<path class="st13" d="M279.4,180.6c0.7,0,1.4-0.1,2-0.2l-1.2,0.2H279.4z"/>
		
			<linearGradient id="SVGID_12_" gradientUnits="userSpaceOnUse" x1="10.3" y1="129.7" x2="289.7" y2="129.7" gradientTransform="matrix(1 0 0 -1 0 300)">
			<stop  offset="0" style="stop-color:#D41672"/>
			<stop  offset="0.6386" style="stop-color:#ED1E79"/>
			<stop  offset="0.7525" style="stop-color:#E41874"/>
			<stop  offset="0.9413" style="stop-color:#CA0668"/>
			<stop  offset="1" style="stop-color:#C10063"/>
		</linearGradient>
		<path class="st14" d="M289.7,170.3c0,5.1-3.6,9.2-8.3,10.2c-0.7,0.1-1.4,0.2-2,0.2H20.6c-0.7,0-1.4-0.1-2-0.2
			c-4.8-0.9-8.3-5.1-8.3-10.2c0-5,3.6-9.2,8.3-10.2c0.7-0.1,1.4-0.2,2-0.2h258.7c0.7,0,1.4,0.1,2,0.2
			C286.2,161,289.7,165.2,289.7,170.3z"/>
		
			<linearGradient id="SVGID_13_" gradientUnits="userSpaceOnUse" x1="260.27" y1="239.5" x2="260.4" y2="239.5" gradientTransform="matrix(1 0 0 -1 0 300)">
			<stop  offset="0" style="stop-color:#D41672"/>
			<stop  offset="0.6386" style="stop-color:#ED1E79"/>
			<stop  offset="0.7525" style="stop-color:#E41874"/>
			<stop  offset="0.9413" style="stop-color:#CA0668"/>
			<stop  offset="1" style="stop-color:#C10063"/>
		</linearGradient>
		<path class="st15" d="M260.4,59.4v2.2c0-0.7-0.1-1.4-0.1-2.2H260.4z"/>
		
			<linearGradient id="SVGID_14_" gradientUnits="userSpaceOnUse" x1="190.6639" y1="212.6814" x2="260.4" y2="212.6814" gradientTransform="matrix(1 0 0 -1 0 300)">
			<stop  offset="0" style="stop-color:#D41672"/>
			<stop  offset="0.6386" style="stop-color:#ED1E79"/>
			<stop  offset="0.7525" style="stop-color:#E41874"/>
			<stop  offset="0.9413" style="stop-color:#CA0668"/>
			<stop  offset="1" style="stop-color:#C10063"/>
		</linearGradient>
		<path class="st16" d="M260.4,61.6V150h-13.7V62.4c0-10.8-8.8-19.6-19.6-19.6h-0.2c2.2,8.4-0.3,17.5-6.7,23.6
			c-0.2,0.1-0.3,0.3-0.5,0.5c-0.6,0.4-1.4,0.6-2.3,0.5c-0.7-0.1-1.3-0.5-1.8-1l-0.4-0.5l-6.8-9.6l-8.3-11.8l-8.8-12.6
			c-0.1-0.1-0.2-0.2-0.2-0.3c-0.4-0.6-0.5-1.4-0.4-2.1c0.2-1,0.9-1.9,1.8-2.3c0.1,0,0.3-0.1,0.4-0.2c8.8-4.2,19.2-2.7,26.5,3.7
			c2.6-0.7,5.4-1,8.2-1c17.1,0,31.1,13.1,32.6,29.8C260.3,60.1,260.4,60.9,260.4,61.6z"/>
		
			<linearGradient id="SVGID_15_" gradientUnits="userSpaceOnUse" x1="260.4" y1="238.05" x2="260.4" y2="238.05" gradientTransform="matrix(1 0 0 -1 0 300)">
			<stop  offset="0" style="stop-color:#D41672"/>
			<stop  offset="0.6386" style="stop-color:#ED1E79"/>
			<stop  offset="0.7525" style="stop-color:#E41874"/>
			<stop  offset="0.9413" style="stop-color:#CA0668"/>
			<stop  offset="1" style="stop-color:#C10063"/>
		</linearGradient>
		<path class="st17" d="M260.4,62.4L260.4,62.4v-0.9C260.4,61.9,260.4,62.1,260.4,62.4z"/>
		
			<linearGradient id="SVGID_16_" gradientUnits="userSpaceOnUse" x1="27.4" y1="64.7" x2="272.501" y2="64.7" gradientTransform="matrix(1 0 0 -1 0 300)">
			<stop  offset="0" style="stop-color:#D41672"/>
			<stop  offset="0.6386" style="stop-color:#ED1E79"/>
			<stop  offset="0.7525" style="stop-color:#E41874"/>
			<stop  offset="0.9413" style="stop-color:#CA0668"/>
			<stop  offset="1" style="stop-color:#C10063"/>
		</linearGradient>
		<path class="st18" d="M253,240c-9.4,9.4-21.7,16.1-35.3,18.5c0,0.1,0.1,0.3,0.1,0.5v19.3c0,0.9-0.8,1.7-1.7,1.7h-21.8
			c-0.9,0-1.7-0.8-1.7-1.7v-18.7h-79.9v18.7c0,0.9-0.8,1.7-1.7,1.7H89.2c-0.9,0-1.7-0.8-1.7-1.7v-19c-33.6-3.4-60.1-31.9-60.1-66.4
			c0-0.7,0-1.5,0-2.3h245.1c0,0.7,0,1.5,0,2.3C272.6,211.2,265.1,227.9,253,240z"/>
	</g>
	<g id="Social">
		
			<linearGradient id="SVGID_17_" gradientUnits="userSpaceOnUse" x1="27.3362" y1="146.4" x2="130.0222" y2="146.4" gradientTransform="matrix(1 0 0 -1 0 300)">
			<stop  offset="0" style="stop-color:#D41672"/>
			<stop  offset="0.6386" style="stop-color:#ED1E79"/>
			<stop  offset="0.7525" style="stop-color:#E41874"/>
			<stop  offset="0.9413" style="stop-color:#CA0668"/>
			<stop  offset="1" style="stop-color:#C10063"/>
		</linearGradient>
		<path class="st19" d="M91.6,114.6c2.3,1.4,4.7,4.5,7.1,7.2c8.6,9.5,15.4,17.1,22.7,12.9c5.9-3.4,8.1-8.8,8.4-13.5
			c0.5-7.2,0-35.8,0-42.7l0,0c0,0,0-0.6,0-0.8c-0.1-0.4-0.4-0.8-0.7-1.1c-0.2-0.1-0.4-0.3-0.6-0.3c-0.2-0.1-0.5-0.1-0.7-0.1h-5.5
			c4.3-4.5,6.9-10.6,6.9-17.3c0-13.9-11.3-25.3-25.3-25.3c-13.9,0-25.3,11.3-25.3,25.3c0,6.1,2.1,11.6,5.7,16
			c-11.8-0.4-24.9,9.6-27.7,16.7c-7.6,19.3-12.3,33.5-26,61.3c-13.6,27.8,19.7,34.8,19.7,34.8h9l0,0h37.1v68.2c0,1,0.1,2.1,0.3,3.1
			c1.3,8.3,7.8,14.6,15.6,14.6s14.3-6.3,15.6-14.6c0.2-1,0.3-2.1,0.3-3.1v-86.4c0-1-0.1-2-0.3-3c-1-6.8-4.6-12.1-9.1-13.3
			c-0.7-0.2-1.3-0.3-2-0.3H83.2c-17.5,0-8.4-15-4.8-27.4C81.9,113,88.9,112.9,91.6,114.6z M104,84.1c2.7,0,5.3-0.4,7.7-1.2v4.7
			c0,11.1-4,8.3-5,7.1c-2.2-2.8-1.8-4.6-7.3-11C100.9,83.9,102.4,84.1,104,84.1z"/>
		
			<linearGradient id="SVGID_18_" gradientUnits="userSpaceOnUse" x1="20.3" y1="115.8" x2="93.71" y2="115.8" gradientTransform="matrix(1 0 0 -1 0 300)">
			<stop  offset="0" style="stop-color:#D41672"/>
			<stop  offset="0.6386" style="stop-color:#ED1E79"/>
			<stop  offset="0.7525" style="stop-color:#E41874"/>
			<stop  offset="0.9413" style="stop-color:#CA0668"/>
			<stop  offset="1" style="stop-color:#C10063"/>
		</linearGradient>
		<polygon class="st20" points="93.8,191.5 93.8,196.3 92.2,196.3 92.2,269.6 87,269.6 87,196.3 25.5,196.3 25.5,269.6 20.3,269.6 
			20.3,98.8 25.5,98.8 25.5,191.5 		"/>
		
			<linearGradient id="SVGID_19_" gradientUnits="userSpaceOnUse" x1="108.1" y1="96.25" x2="280.7" y2="96.25" gradientTransform="matrix(1 0 0 -1 0 300)">
			<stop  offset="0" style="stop-color:#D41672"/>
			<stop  offset="0.6386" style="stop-color:#ED1E79"/>
			<stop  offset="0.7525" style="stop-color:#E41874"/>
			<stop  offset="0.9413" style="stop-color:#CA0668"/>
			<stop  offset="1" style="stop-color:#C10063"/>
		</linearGradient>
		<polygon class="st21" points="222.9,143.1 222.9,265.7 230.7,265.7 230.7,273.5 205.7,273.5 205.7,265.7 215.1,265.7 215.1,143.1 
			108.1,143.1 108.1,134 280.7,134 280.7,143.1 		"/>
		
			<linearGradient id="SVGID_20_" gradientUnits="userSpaceOnUse" x1="127.85" y1="132.1" x2="128.11" y2="132.1" gradientTransform="matrix(1 0 0 -1 0 300)">
			<stop  offset="0" style="stop-color:#D41672"/>
			<stop  offset="0.6386" style="stop-color:#ED1E79"/>
			<stop  offset="0.7525" style="stop-color:#E41874"/>
			<stop  offset="0.9413" style="stop-color:#CA0668"/>
			<stop  offset="1" style="stop-color:#C10063"/>
		</linearGradient>
		<path class="st22" d="M128.1,168.6v0.8c0-1-0.1-2-0.3-3h0.1L128.1,168.6z"/>
		
			<linearGradient id="SVGID_21_" gradientUnits="userSpaceOnUse" x1="128.1" y1="129.8" x2="128.1" y2="129.8" gradientTransform="matrix(1 0 0 -1 0 300)">
			<stop  offset="0" style="stop-color:#D41672"/>
			<stop  offset="0.6386" style="stop-color:#ED1E79"/>
			<stop  offset="0.7525" style="stop-color:#E41874"/>
			<stop  offset="0.9413" style="stop-color:#CA0668"/>
			<stop  offset="1" style="stop-color:#C10063"/>
		</linearGradient>
		<path class="st23" d="M128.1,170.2c0,0.3,0,0.5,0,0.8v-1.6C128.1,169.6,128.1,169.9,128.1,170.2z"/>
		
			<linearGradient id="SVGID_22_" gradientUnits="userSpaceOnUse" x1="127.4558" y1="222.95" x2="128.1119" y2="222.95" gradientTransform="matrix(1 0 0 -1 0 300)">
			<stop  offset="0" style="stop-color:#D41672"/>
			<stop  offset="0.6386" style="stop-color:#ED1E79"/>
			<stop  offset="0.7525" style="stop-color:#E41874"/>
			<stop  offset="0.9413" style="stop-color:#CA0668"/>
			<stop  offset="1" style="stop-color:#C10063"/>
		</linearGradient>
		<path class="st24" d="M128.1,77.6c-0.1-0.4-0.3-0.8-0.7-1.1C127.8,76.8,128,77.2,128.1,77.6z"/>
	</g>
	<g id="Cost">
		
			<linearGradient id="SVGID_23_" gradientUnits="userSpaceOnUse" x1="102.24" y1="81.9" x2="102.64" y2="81.9" gradientTransform="matrix(1 0 0 -1 0 300)">
			<stop  offset="0" style="stop-color:#D41672"/>
			<stop  offset="0.6386" style="stop-color:#ED1E79"/>
			<stop  offset="0.7525" style="stop-color:#E41874"/>
			<stop  offset="0.9413" style="stop-color:#CA0668"/>
			<stop  offset="1" style="stop-color:#C10063"/>
		</linearGradient>
		<path class="st25" d="M102.6,217.6c-0.2,0.3-0.3,0.7-0.4,1C102.3,218.3,102.5,217.9,102.6,217.6L102.6,217.6z"/>
		
			<linearGradient id="SVGID_24_" gradientUnits="userSpaceOnUse" x1="104.9745" y1="85.1" x2="106.4692" y2="85.1" gradientTransform="matrix(1 0 0 -1 0 300)">
			<stop  offset="0" style="stop-color:#D41672"/>
			<stop  offset="0.6386" style="stop-color:#ED1E79"/>
			<stop  offset="0.7525" style="stop-color:#E41874"/>
			<stop  offset="0.9413" style="stop-color:#CA0668"/>
			<stop  offset="1" style="stop-color:#C10063"/>
		</linearGradient>
		<path class="st26" d="M106.5,214.6l-1.5,0.6C105.5,215,106.1,214.8,106.5,214.6z"/>
		
			<linearGradient id="SVGID_25_" gradientUnits="userSpaceOnUse" x1="102.24" y1="82.95" x2="104.34" y2="82.95" gradientTransform="matrix(1 0 0 -1 0 300)">
			<stop  offset="0" style="stop-color:#D41672"/>
			<stop  offset="0.6386" style="stop-color:#ED1E79"/>
			<stop  offset="0.7525" style="stop-color:#E41874"/>
			<stop  offset="0.9413" style="stop-color:#CA0668"/>
			<stop  offset="1" style="stop-color:#C10063"/>
		</linearGradient>
		<path class="st27" d="M104.3,215.5c-0.7,0.5-1.3,1.2-1.7,2.1c-0.2,0.3-0.3,0.7-0.4,1c0.1-0.3,0.2-0.7,0.4-1
			C103,216.7,103.6,216,104.3,215.5z"/>
		
			<linearGradient id="SVGID_26_" gradientUnits="userSpaceOnUse" x1="129.9183" y1="94.9828" x2="131.725" y2="94.9828" gradientTransform="matrix(1 0 0 -1 0 300)">
			<stop  offset="0" style="stop-color:#D41672"/>
			<stop  offset="0.6386" style="stop-color:#ED1E79"/>
			<stop  offset="0.7525" style="stop-color:#E41874"/>
			<stop  offset="0.9413" style="stop-color:#CA0668"/>
			<stop  offset="1" style="stop-color:#C10063"/>
		</linearGradient>
		<path class="st28" d="M129.9,205c0.5-0.1,1.2-0.1,1.8,0.1C131.1,204.9,130.5,204.9,129.9,205z"/>
		<path class="st29" d="M92.6,345.4l-1.3,0.9C91.7,346,92.2,345.6,92.6,345.4z"/>
		<path class="st29" d="M89.2,350.2c0.1-1.3,0.6-2.6,1.4-3.5C89.9,347.6,89.3,348.9,89.2,350.2z"/>
		<path class="st29" d="M113.6,330.8c0.5-0.2,1.2-0.3,1.8-0.3C114.7,330.5,114.1,330.6,113.6,330.8z"/>
		
			<linearGradient id="SVGID_27_" gradientUnits="userSpaceOnUse" x1="210.7" y1="214.9" x2="211.24" y2="214.9" gradientTransform="matrix(1 0 0 -1 0 300)">
			<stop  offset="0" style="stop-color:#D41672"/>
			<stop  offset="0.6386" style="stop-color:#ED1E79"/>
			<stop  offset="0.7525" style="stop-color:#E41874"/>
			<stop  offset="0.9413" style="stop-color:#CA0668"/>
			<stop  offset="1" style="stop-color:#C10063"/>
		</linearGradient>
		<path class="st30" d="M210.7,85.2l0.5-0.2l-0.1,0.1C211,85.1,210.8,85.2,210.7,85.2z"/>
		
			<linearGradient id="SVGID_28_" gradientUnits="userSpaceOnUse" x1="213.5" y1="217.5" x2="214.61" y2="217.5" gradientTransform="matrix(1 0 0 -1 0 300)">
			<stop  offset="0" style="stop-color:#D41672"/>
			<stop  offset="0.6386" style="stop-color:#ED1E79"/>
			<stop  offset="0.7525" style="stop-color:#E41874"/>
			<stop  offset="0.9413" style="stop-color:#CA0668"/>
			<stop  offset="1" style="stop-color:#C10063"/>
		</linearGradient>
		<path class="st31" d="M214.6,81.4c-0.2,0.8-0.5,1.5-1,2.1l-0.1,0.1C214,83,214.4,82.2,214.6,81.4z"/>
		
			<linearGradient id="SVGID_29_" gradientUnits="userSpaceOnUse" x1="210.7" y1="214.95" x2="211.88" y2="214.95" gradientTransform="matrix(1 0 0 -1 0 300)">
			<stop  offset="0" style="stop-color:#D41672"/>
			<stop  offset="0.6386" style="stop-color:#ED1E79"/>
			<stop  offset="0.7525" style="stop-color:#E41874"/>
			<stop  offset="0.9413" style="stop-color:#CA0668"/>
			<stop  offset="1" style="stop-color:#C10063"/>
		</linearGradient>
		<path class="st32" d="M211.9,84.8c-0.2,0.1-0.5,0.2-0.7,0.3c-0.2,0.1-0.3,0.1-0.5,0.2l0.5-0.2L211.9,84.8z"/>
		
			<linearGradient id="SVGID_30_" gradientUnits="userSpaceOnUse" x1="212.51" y1="217.05" x2="214.61" y2="217.05" gradientTransform="matrix(1 0 0 -1 0 300)">
			<stop  offset="0" style="stop-color:#D41672"/>
			<stop  offset="0.6386" style="stop-color:#ED1E79"/>
			<stop  offset="0.7525" style="stop-color:#E41874"/>
			<stop  offset="0.9413" style="stop-color:#CA0668"/>
			<stop  offset="1" style="stop-color:#C10063"/>
		</linearGradient>
		<path class="st33" d="M214.6,81.4c-0.2,0.8-0.5,1.5-1,2.1c-0.3,0.4-0.7,0.8-1.1,1c0.4-0.3,0.7-0.6,1-0.9l0,0
			C214,83,214.4,82.2,214.6,81.4z"/>
		
			<linearGradient id="SVGID_31_" gradientUnits="userSpaceOnUse" x1="185.13" y1="205.0172" x2="186.9367" y2="205.0172" gradientTransform="matrix(1 0 0 -1 0 300)">
			<stop  offset="0" style="stop-color:#D41672"/>
			<stop  offset="0.6386" style="stop-color:#ED1E79"/>
			<stop  offset="0.7525" style="stop-color:#E41874"/>
			<stop  offset="0.9413" style="stop-color:#CA0668"/>
			<stop  offset="1" style="stop-color:#C10063"/>
		</linearGradient>
		<path class="st34" d="M186.9,95c-0.5,0.1-1.2,0.1-1.8-0.1C185.7,95.1,186.4,95.1,186.9,95z"/>
		<path class="st29" d="M224.3-45.4l1.3-0.9C225.2-46,224.6-45.6,224.3-45.4z"/>
		<path class="st29" d="M227.6-50.2c-0.1,1.3-0.6,2.6-1.4,3.5C227-47.6,227.5-48.9,227.6-50.2z"/>
		<path class="st29" d="M203.3-30.8c-0.5,0.2-1.2,0.3-1.8,0.3C202.1-30.5,202.8-30.6,203.3-30.8z"/>
		
			<linearGradient id="SVGID_32_" gradientUnits="userSpaceOnUse" x1="92.6699" y1="148.65" x2="225.2301" y2="148.65" gradientTransform="matrix(1 0 0 -1 0 300)">
			<stop  offset="0" style="stop-color:#D41672"/>
			<stop  offset="0.6386" style="stop-color:#ED1E79"/>
			<stop  offset="0.7525" style="stop-color:#E41874"/>
			<stop  offset="0.9413" style="stop-color:#CA0668"/>
			<stop  offset="1" style="stop-color:#C10063"/>
		</linearGradient>
		<path class="st35" d="M213.6,83.5c0.5-0.6,0.8-1.3,1-2.1c-0.2,0.8-0.6,1.5-1.1,2.1l0,0l-2.3,1.5l-0.5,0.2c0.1,0,0.3-0.1,0.5-0.2
			L200,92.2c0,0,0,0-0.1,0c-0.1,0.1-0.3,0.2-0.5,0.3c-0.5,0.3-1.3,0.9-1.6,1.1c-0.2,0.1-0.2,0.1-0.3,0.2c-0.6,0.2-1.3,0.3-2,0.3
			c-1.3,0-2.5-0.5-3.4-1.2c-0.2-0.1-0.4-0.3-0.6-0.5c-13.1-11.7-26-11.9-33.3-11c-9.7,1.3-18,6.5-20.3,13
			c-1.5,4.4-1.2,11.6,10.4,21.3l28.8,24.1l0,0l22.9,18.8c10.4,8.7,17.5,18.3,21.1,28.5c3.7,9.8,4,20.2,0.6,29.5
			c-3.4,10-10.6,18.6-20.8,25.5c-9.4,6.4-21,10.8-33.4,12.3c-0.4,0.1-0.7,0.1-1.1,0.2l0.3,19c0,3.2-2.4,5.8-5.5,5.9l-17.8,0.3
			c-3,0-5.6-2.5-5.6-5.7l-0.3-20.2c-3.8-0.7-7.6-1.7-11.3-2.9c-11.4-4.1-21.8-10.2-31.1-18.3c-0.1-0.1-0.2-0.1-0.3-0.2
			c-0.3-0.2-0.5-0.5-0.8-0.7c-1.1-1.2-1.7-2.8-1.7-4.5c0-0.2,0-0.5,0-0.6c0.2-1.5,0.8-2.8,1.7-3.8l0.6-0.4l1.5-1
			c0.2-0.1,0.3-0.2,0.3-0.2l5.7-3.7c-0.1,0.3-0.3,0.6-0.4,1c0.1-0.3,0.2-0.7,0.4-1l15.2-9.8c0,0,0,0,0.1,0c0.1-0.1,0.3-0.2,0.5-0.3
			c0.5-0.3,1.3-0.9,1.6-1.1c0.2-0.1,0.2-0.2,0.3-0.2c0.6-0.2,1.3-0.3,2-0.3c1.3,0,2.5,0.5,3.4,1.2c0.2,0.1,0.4,0.3,0.6,0.5
			c13.1,11.7,26,11.9,33.3,11c9.7-1.3,18-6.5,20.3-13c1.5-4.3,1.2-11.6-10.4-21.3l-28.8-24.1l0,0l-22.9-18.9
			c-10.4-8.7-17.5-18.3-21.1-28.5c-3.7-9.8-4-20.2-0.6-29.5c3.4-10,10.6-18.6,20.8-25.5c6.2-4.2,13.3-7.5,21-9.8l-0.2-18.9
			c0-3.2,2.4-5.8,5.5-5.9l17.8-0.3c3,0,5.6,2.5,5.6,5.7l0.2,15.7c8.3,0.3,16.7,1.9,24.8,4.5c11.4,4.1,21.9,10.2,31.1,18.3
			c0.1,0.1,0.2,0.1,0.3,0.2c0.3,0.2,0.5,0.5,0.8,0.7c1,1.2,1.7,2.8,1.7,4.5c0,0.2,0,0.5,0,0.6c-0.2,1.5-0.8,2.8-1.7,3.8l-0.6,0.4
			l-1.5,1c-0.2,0.1-0.3,0.2-0.3,0.2L213.6,83.5z"/>
	</g>
	
		<image style="display:inline;overflow:visible;" width="121" height="118" xlink:href="E48DCDE1.jpg"  transform="matrix(0.9999 0 0 0.9999 2.5076 182.0148)">
	</image>
	
		<image style="display:inline;overflow:visible;" width="107" height="132" xlink:href="E48DCDEF.jpg"  transform="matrix(0.9999 0 0 0.9999 173 168.0165)">
	</image>
	
		<image style="overflow:visible;" width="128" height="34" xlink:href="E48DCDE2.jpg"  transform="matrix(0.9999 0 0 0.9999 24.1507 52.15)">
	</image>
	
		<image style="overflow:visible;" width="450" height="470" xlink:href="../../../Pictures/stock-vector-key-icon-341083640.jpg"  transform="matrix(0.24 0 0 0.24 192 17)">
	</image>
</g>
<g id="Layer_2" class="st0">
	<linearGradient id="SVGID_33_" gradientUnits="userSpaceOnUse" x1="209.19" y1="66.065" x2="280.67" y2="66.065">
		<stop  offset="0" style="stop-color:#D41672"/>
		<stop  offset="0.6386" style="stop-color:#ED1E79"/>
		<stop  offset="0.7525" style="stop-color:#E41874"/>
		<stop  offset="0.9413" style="stop-color:#CA0668"/>
		<stop  offset="1" style="stop-color:#C10063"/>
	</linearGradient>
	<path class="st36" d="M266.8,52.2c-5.7,0-10.5,3.4-12.7,8.3h-39l-5.8,6.1l4.6,4.6l3.5-3.5l2.9,2.9l2.7-2.7l3.1,3.1h3.5l2.5-2.5
		l2.7,2.7h1.5l3.4-3.4l3.4,3.4h7.1v2.8h5.2c2.5,3.7,6.7,6.2,11.6,6.2c7.7,0,13.9-6.2,13.9-13.9C280.7,58.4,274.4,52.2,266.8,52.2z
		 M252.2,62.5h-35.7v-1h35.7V62.5z M272.5,70c-2.2,0-4-1.8-4-4c0-2.2,1.8-4,4-4c2.2,0,4,1.8,4,4C276.4,68.3,274.6,70,272.5,70z"/>
</g>
<g id="Layer_3" class="st0">
	<linearGradient id="SVGID_34_" gradientUnits="userSpaceOnUse" x1="24.15" y1="69.15" x2="57.65" y2="69.15">
		<stop  offset="0" style="stop-color:#D41672"/>
		<stop  offset="0.6386" style="stop-color:#ED1E79"/>
		<stop  offset="0.7525" style="stop-color:#E41874"/>
		<stop  offset="0.9413" style="stop-color:#CA0668"/>
		<stop  offset="1" style="stop-color:#C10063"/>
	</linearGradient>
	<circle class="st37" cx="40.9" cy="69.2" r="16.8"/>
	<linearGradient id="SVGID_35_" gradientUnits="userSpaceOnUse" x1="71.39" y1="69.15" x2="104.89" y2="69.15">
		<stop  offset="0" style="stop-color:#D41672"/>
		<stop  offset="0.6386" style="stop-color:#ED1E79"/>
		<stop  offset="0.7525" style="stop-color:#E41874"/>
		<stop  offset="0.9413" style="stop-color:#CA0668"/>
		<stop  offset="1" style="stop-color:#C10063"/>
	</linearGradient>
	<circle class="st38" cx="88.1" cy="69.2" r="16.8"/>
	<linearGradient id="SVGID_36_" gradientUnits="userSpaceOnUse" x1="118.63" y1="69.15" x2="152.13" y2="69.15">
		<stop  offset="0" style="stop-color:#D41672"/>
		<stop  offset="0.6386" style="stop-color:#ED1E79"/>
		<stop  offset="0.7525" style="stop-color:#E41874"/>
		<stop  offset="0.9413" style="stop-color:#CA0668"/>
		<stop  offset="1" style="stop-color:#C10063"/>
	</linearGradient>
	<path class="st39" d="M152.1,69.2c0,9.3-7.5,16.8-16.8,16.8c-9.3,0-16.8-7.5-16.8-16.8s7.5-16.8,16.8-16.8
		C144.6,52.4,152.1,59.9,152.1,69.2z"/>
</g>
<g id="Layer_4" class="st0">
	<linearGradient id="SVGID_37_" gradientUnits="userSpaceOnUse" x1="7.3388" y1="266.9379" x2="118.6612" y2="266.9379">
		<stop  offset="0" style="stop-color:#D41672"/>
		<stop  offset="0.6386" style="stop-color:#ED1E79"/>
		<stop  offset="0.7525" style="stop-color:#E41874"/>
		<stop  offset="0.9413" style="stop-color:#CA0668"/>
		<stop  offset="1" style="stop-color:#C10063"/>
	</linearGradient>
	<path class="st40" d="M118.7,298.4H7.3c0-34.8,24.9-63,55.7-63C93.7,235.4,118.7,263.6,118.7,298.4z"/>
	<linearGradient id="SVGID_38_" gradientUnits="userSpaceOnUse" x1="27.8296" y1="216.774" x2="98.1704" y2="216.774">
		<stop  offset="0" style="stop-color:#D41672"/>
		<stop  offset="0.6386" style="stop-color:#ED1E79"/>
		<stop  offset="0.7525" style="stop-color:#E41874"/>
		<stop  offset="0.9413" style="stop-color:#CA0668"/>
		<stop  offset="1" style="stop-color:#C10063"/>
	</linearGradient>
	<circle class="st41" cx="63" cy="216.8" r="35.2"/>
</g>
<g id="Layer_5">
	<linearGradient id="SVGID_39_" gradientUnits="userSpaceOnUse" x1="56.6407" y1="76.2397" x2="217.0948" y2="76.2397">
		<stop  offset="0" style="stop-color:#D41672"/>
		<stop  offset="0.6386" style="stop-color:#ED1E79"/>
		<stop  offset="0.7525" style="stop-color:#E41874"/>
		<stop  offset="0.9413" style="stop-color:#CA0668"/>
		<stop  offset="1" style="stop-color:#C10063"/>
	</linearGradient>
	<path class="st42" d="M91.6,88c0,0,28.7-23.7,80.8-14.5c-2,3.8-7.1,16.8-7.1,16.8l51.8-8.5l-32.7-40.5l-7.8,17.9
		c0,0-61.5-5.3-95.5,18.3c-3.3-2.7-10.9-10.9-10.9-10.9l-13.6,44.5l45.1-11.1C101.7,100.1,93.1,89.3,91.6,88z"/>
	<rect x="112.4" y="46" class="st43" width="26.9" height="144.2"/>
	<linearGradient id="SVGID_40_" gradientUnits="userSpaceOnUse" x1="87.9675" y1="154.4446" x2="218.6076" y2="154.4446">
		<stop  offset="0" style="stop-color:#D41672"/>
		<stop  offset="0.6386" style="stop-color:#ED1E79"/>
		<stop  offset="0.7525" style="stop-color:#E41874"/>
		<stop  offset="0.9413" style="stop-color:#CA0668"/>
		<stop  offset="1" style="stop-color:#C10063"/>
	</linearGradient>
	<path class="st44" d="M218.6,130.2L218.6,130.2l0,62.7h0c0,0.3,0,0.5,0,0.8c0,36.1-29.2,65.3-65.3,65.3
		c-36.1,0-65.3-29.2-65.3-65.3c0-0.3,0-0.5,0-0.8h0v-62.7h0c0-0.1,0-0.2,0-0.3c0-6,4.9-10.9,10.9-10.9c6.1,0,11,4.9,11,10.9
		c0,0.1,0,0.2,0,0.3h0v39.3h5.1V61.2h0c0-0.1,0-0.2,0-0.3c0-6,4.9-10.9,10.9-10.9c6.1,0,11,4.9,11,10.9c0,0.1,0,0.2,0,0.3h0v79.2
		h5.9v-27.7h0c0-0.1,0-0.2,0-0.3c0-6,4.9-10.9,10.9-10.9c6.1,0,11,4.9,11,10.9c0,0.1,0,0.2,0,0.3h0v31.6h5.1v-25.6h0
		c0-0.1,0-0.2,0-0.3c0-6,4.9-10.9,10.9-10.9c6.1,0,11,4.9,11,10.9c0,0.1,0,0.2,0,0.3h0V148h5.1v-17.8h0c0-0.1,0-0.2,0-0.3
		c0-6,4.9-10.9,10.9-10.9c6.1,0,11,4.9,11,10.9C218.6,130,218.6,130.1,218.6,130.2z"/>
</g>
</svg>
