<?xml version="1.0" encoding="utf-8"?>
<!-- Generator: Adobe Illustrator 21.0.2, SVG Export Plug-In . SVG Version: 6.00 Build 0)  -->
<svg version="1.1" id="Layer_1" xmlns="http://www.w3.org/2000/svg" xmlns:xlink="http://www.w3.org/1999/xlink" x="0px" y="0px"
	 viewBox="0 0 300 200" style="enable-background:new 0 0 300 200;" xml:space="preserve">
<style type="text/css">
	.st0{stroke:#000000;stroke-miterlimit:10;}
	.st1{fill:url(#SVGID_1_);}
	.st2{fill:url(#SVGID_2_);}
	.st3{fill:url(#SVGID_3_);}
	.st4{fill:url(#SVGID_4_);}
	.st5{fill:#ED1E79;}
	.st6{fill:url(#SVGID_5_);}
	.st7{display:none;fill:url(#SVGID_6_);}
	.st8{display:none;fill:#FFFFFF;}
	.st9{font-family:'ADAM.CGPRO';}
	.st10{font-size:3.5214px;}
</style>
<path class="st0" d="M41.6,173.4v19.2v0.6h-1.2v-0.6v-19.2H12.9v19.2v0.6h-1.2v-0.6v-19.2v-1.2V153v-0.6h1.2v0.6v19.2h27.6V153v-0.6
	h1.2v0.6v19.2V173.4z"/>
<path class="st0" d="M50,192.8l-0.1,0.4h-1.3l0.4-0.8l17.4-39.6c0.2-0.4,0.9-0.4,1.1,0l17.4,39.6l0.4,0.8h-1.3l-0.1-0.4l-16.8-38.3
	L50,192.8z"/>
<path class="st0" d="M92,153v-0.6h1.2v0.6v39h22.2h0.6v1.2h-0.6H92.6c-0.4,0-0.6-0.2-0.6-0.6V153z"/>
<path class="st0" d="M123.2,153v-0.6h1.2v0.6v39h22.2h0.6v1.2h-0.6h-22.8c-0.4,0-0.6-0.2-0.6-0.6V153z"/>
<linearGradient id="SVGID_1_" gradientUnits="userSpaceOnUse" x1="151.0846" y1="172.3548" x2="176.8612" y2="172.3548">
	<stop  offset="0" style="stop-color:#1A1A1A"/>
	<stop  offset="1" style="stop-color:#000000"/>
</linearGradient>
<path class="st1" d="M176.3,179.7c-0.7-2.1-2-4.1-3.9-5.8c-1-0.9-2.3-2.2-3.4-3.2l-7.4-7.1c-1.9-1.8-1.9-3.2-1.7-4
	c0.4-1.3,1.7-2.3,3.2-2.6c1.3-0.2,3.6-0.2,5.9,2.5l5.5-4.4c-1.7-2.1-3.8-3.6-6.1-4.5c-2.2-0.8-4.4-1-6.6-0.5c-2,0.4-3.8,1.3-5.3,2.5
	c-1.6,1.4-2.8,3.1-3.3,5c-0.5,1.8-0.5,3.8,0.1,5.6c0.6,1.9,1.7,3.7,3.4,5.3l5.4,5.2c0.2,0.2,3.5,3.4,5.5,5.3c1.3,1.2,2.6,3,2,5
	c-0.5,1.8-2.4,3.3-4.7,3.7c-1.3,0.3-2.8,0.2-4.1-0.4c-1.6-0.6-3.1-1.8-4.4-3.5l-5.5,4.3c2.1,2.7,4.6,4.6,7.4,5.7
	c1.7,0.7,3.5,1,5.3,1c0.9,0,1.8-0.1,2.7-0.2c4.9-1,8.8-4.4,10-8.7C177,183.9,177,181.7,176.3,179.7z"/>
<linearGradient id="SVGID_2_" gradientUnits="userSpaceOnUse" x1="174.6976" y1="172.3548" x2="236.996" y2="172.3548">
	<stop  offset="0" style="stop-color:#1A1A1A"/>
	<stop  offset="1" style="stop-color:#000000"/>
</linearGradient>
<path class="st2" d="M229.4,149.1l-11.7,29.3l-7.9-18.6l-3.9-9.1l-3.6,9.2l-7.4,18.5l-12.5-29.3h-7.7l20.4,46.5l11-26.8l11.7,26.8
	l19.1-46.5H229.4z"/>
<linearGradient id="SVGID_3_" gradientUnits="userSpaceOnUse" x1="223.5139" y1="172.3548" x2="261.8902" y2="172.3548">
	<stop  offset="0" style="stop-color:#1A1A1A"/>
	<stop  offset="1" style="stop-color:#000000"/>
</linearGradient>
<path class="st3" d="M242.7,149.3l-19.2,46.2h7.6l2.7-6.7l1.1-2.7l3.9-9.6l0.8-2l3.2-8l3.2,8l2.2,5.4l2.5,6.2h0l2.4,6l1.4,3.5h7.6
	L242.7,149.3z"/>
<linearGradient id="SVGID_4_" gradientUnits="userSpaceOnUse" x1="266.7095" y1="172.3548" x2="295" y2="172.3548">
	<stop  offset="0" style="stop-color:#1A1A1A"/>
	<stop  offset="1" style="stop-color:#000000"/>
</linearGradient>
<path class="st4" d="M291.4,154.6c-1.8-2-5.2-4.4-11.1-4.4h-13.6v44.2h7.4v-14.7h6.2c5.9,0,9.3-2.4,11.1-4.4
	c2.4-2.6,3.6-6.2,3.6-10.3C295,160.8,293.8,157.3,291.4,154.6z M286.7,171.1c-1.4,1.5-3.6,2.3-6.5,2.3h-6.2v-16.8h6.2
	c2.9,0,5,0.8,6.5,2.4c1.6,1.8,2,4.3,2,6C288.7,166.8,288.3,169.3,286.7,171.1z"/>
<rect x="154.1" y="132.9" class="st5" width="7.4" height="10.5"/>
<linearGradient id="SVGID_5_" gradientUnits="userSpaceOnUse" x1="97.6727" y1="83.6505" x2="202.3273" y2="83.6505">
	<stop  offset="0" style="stop-color:#D41672"/>
	<stop  offset="0.6386" style="stop-color:#ED1E79"/>
	<stop  offset="0.7525" style="stop-color:#E41874"/>
	<stop  offset="0.9413" style="stop-color:#CA0668"/>
	<stop  offset="1" style="stop-color:#C10063"/>
</linearGradient>
<polygon class="st6" points="202.3,83.4 202.3,143.4 200.2,143.4 200.2,85 185.5,70.8 185.5,143.4 170.8,143.4 170.8,54.2 
	145.5,27.7 145.5,143.4 124.5,143.4 124.5,89.3 111.9,76.1 111.9,143.4 98.2,143.4 97.7,84 110.8,70.8 123.4,83.4 123.4,45.5 
	145,23.9 172.9,51.7 172.9,76.6 184.1,65.6 "/>
<linearGradient id="SVGID_6_" gradientUnits="userSpaceOnUse" x1="25.6875" y1="51.2358" x2="33.6875" y2="51.2358">
	<stop  offset="0" style="stop-color:#D41672"/>
	<stop  offset="1" style="stop-color:#ED1E79"/>
	<stop  offset="1" style="stop-color:#E41874"/>
	<stop  offset="1" style="stop-color:#CA0668"/>
	<stop  offset="1" style="stop-color:#C10063"/>
</linearGradient>
<path class="st7" d="M33.7,47.2v4c0,2.2-1.8,4-4,4s-4-1.8-4-4c0-2.2,1.8-4,4-4H33.7z"/>
<text transform="matrix(1 0 0 1 29.0625 52.3857)" class="st8 st9 st10">1</text>
</svg>
