<?xml version="1.0" encoding="utf-8"?>
<!-- Generator: Adobe Illustrator 21.0.2, SVG Export Plug-In . SVG Version: 6.00 Build 0)  -->
<svg version="1.1" xmlns="http://www.w3.org/2000/svg" xmlns:xlink="http://www.w3.org/1999/xlink" x="0px" y="0px"
	 viewBox="0 0 300 300" style="enable-background:new 0 0 300 300;" xml:space="preserve">
<style type="text/css">
	.st0{display:none;}
	.st1{display:inline;}
	.st2{fill:#3F3F3F;}
	.st3{fill:#F9F9F9;}
	.st4{fill:#303030;}
	.st5{fill:#FFFFFF;stroke:#282828;stroke-width:4;stroke-miterlimit:10;}
</style>
<g id="Layer_2" class="st0">
	<g class="st1">
		<rect y="-3" class="st2" width="300" height="300"/>
	</g>
</g>
<g id="Layer_1" class="st0">
	<g class="st1">
		<rect x="78.2" y="148" width="144" height="6"/>
		<polygon class="st3" points="227.2,143 73.2,143 73.2,159 227.2,159 227.2,143 		"/>
	</g>
	<g class="st1">
		<rect x="78.2" y="116" width="144" height="6"/>
		<polygon class="st3" points="227.2,111 73.2,111 73.2,127 227.2,127 227.2,111 		"/>
	</g>
	<g class="st1">
		<rect x="78.2" y="180" width="144" height="6"/>
		<polygon class="st3" points="227.2,175 73.2,175 73.2,191 227.2,191 227.2,175 		"/>
	</g>
</g>
<g id="Layer_3">
	<g>
		<path class="st4" d="M150.2,35.3c30.8,0,59.8,12,81.6,33.8s33.8,50.8,33.8,81.6s-12,59.8-33.8,81.6S181,266,150.2,266
			s-59.8-12-81.6-33.8s-33.8-50.8-33.8-81.6s12-59.8,33.8-81.6S119.3,35.3,150.2,35.3 M150.2,30.3c-66.5,0-120.4,53.9-120.4,120.4
			S83.7,271,150.2,271s120.4-53.9,120.4-120.4S216.6,30.3,150.2,30.3L150.2,30.3z"/>
	</g>
	<polygon class="st5" points="193,143.3 150.9,188 150.6,188.3 150.3,188 108.2,143.3 108.5,143 150.6,187.7 192.7,143 	"/>
</g>
</svg>
